<?xml version="1.0" encoding="UTF-8" standalone="no"?>
<!-- Created with Inkscape (http://www.inkscape.org/) -->

<svg
   xmlns:dc="http://purl.org/dc/elements/1.1/"
   xmlns:cc="http://creativecommons.org/ns#"
   xmlns:rdf="http://www.w3.org/1999/02/22-rdf-syntax-ns#"
   xmlns:svg="http://www.w3.org/2000/svg"
   xmlns="http://www.w3.org/2000/svg"
   xmlns:sodipodi="http://sodipodi.sourceforge.net/DTD/sodipodi-0.dtd"
   xmlns:inkscape="http://www.inkscape.org/namespaces/inkscape"
   id="svg2855"
   version="1.1"
   inkscape:version="0.47pre4 r22446"
   width="765"
   height="990"
   xml:space="preserve"
   sodipodi:docname="camera_calibration_pattern_15mm.svg"><metadata
     id="metadata2861"><rdf:RDF><cc:Work
         rdf:about=""><dc:format>image/svg+xml</dc:format><dc:type
           rdf:resource="http://purl.org/dc/dcmitype/StillImage" /><dc:title></dc:title></cc:Work></rdf:RDF></metadata><defs
     id="defs2859"><inkscape:perspective
       sodipodi:type="inkscape:persp3d"
       inkscape:vp_x="0 : 0.5 : 1"
       inkscape:vp_y="0 : 1000 : 0"
       inkscape:vp_z="1 : 0.5 : 1"
       inkscape:persp3d-origin="0.5 : 0.33333333 : 1"
       id="perspective2863" /></defs><sodipodi:namedview
     pagecolor="#ffffff"
     bordercolor="#666666"
     borderopacity="1"
     objecttolerance="10"
     gridtolerance="10"
     guidetolerance="10"
     inkscape:pageopacity="0"
     inkscape:pageshadow="2"
     inkscape:window-width="1680"
     inkscape:window-height="976"
     id="namedview2857"
     showgrid="false"
     inkscape:zoom="0.73"
     inkscape:cx="382.5"
     inkscape:cy="495"
     inkscape:window-x="0"
     inkscape:window-y="25"
     inkscape:window-maximized="1"
     inkscape:current-layer="g2865" /><g
     id="g2865"
     inkscape:groupmode="layer"
     inkscape:label="ink_ext_XXXXXX"
     transform="matrix(1.25,0,0,-1.25,0,990)"><g
       id="g2867"
       transform="matrix(0.20000047,0,0,0.2000007,8.3622047,13.320491)"><path
         d="m 0,850.441 425.121,0 0,425.117 -425.121,0 0,-425.117 z"
         style="fill:#231f20;fill-opacity:1;fill-rule:nonzero;stroke:none"
         id="path2869" /><path
         d="m 0,1700.72 425.121,0 0,425.152 -425.121,0 0,-425.152 z"
         style="fill:#231f20;fill-opacity:1;fill-rule:nonzero;stroke:none"
         id="path2871" /><path
         d="m 425.039,425.328 425.16,0 0,425.152 -425.16,0 0,-425.152 z"
         style="fill:#231f20;fill-opacity:1;fill-rule:nonzero;stroke:none"
         id="path2873" /><path
         d="m 850.27,850.559 425.121,0 0,425.16 -425.121,0 0,-425.16 z"
         style="fill:#231f20;fill-opacity:1;fill-rule:nonzero;stroke:none"
         id="path2875" /><path
         d="m 425.23,1275.44 425.121,0 0,425.16 -425.121,0 0,-425.16 z"
         style="fill:#231f20;fill-opacity:1;fill-rule:nonzero;stroke:none"
         id="path2877" /><path
         d="m 850.27,1700.87 425.121,0 0,425.117 -425.121,0 0,-425.117 z"
         style="fill:#231f20;fill-opacity:1;fill-rule:nonzero;stroke:none"
         id="path2879" /><path
         d="m 0.199219,2551.15 425.109001,0 0,425.152 -425.109001,0 0,-425.152 z"
         style="fill:#231f20;fill-opacity:1;fill-rule:nonzero;stroke:none"
         id="path2881" /><path
         d="m 0.199219,3401.42 425.109001,0 0,425.156 -425.109001,0 0,-425.156 z"
         style="fill:#231f20;fill-opacity:1;fill-rule:nonzero;stroke:none"
         id="path2883" /><path
         d="m 425.23,2126.03 425.121,0 0,425.16 -425.121,0 0,-425.16 z"
         style="fill:#231f20;fill-opacity:1;fill-rule:nonzero;stroke:none"
         id="path2885" /><path
         d="m 850.43,2551.26 425.16,0 0,425.16 -425.16,0 0,-425.16 z"
         style="fill:#231f20;fill-opacity:1;fill-rule:nonzero;stroke:none"
         id="path2887" /><path
         d="m 425.391,2976.15 425.16,0 0,425.152 -425.16,0 0,-425.152 z"
         style="fill:#231f20;fill-opacity:1;fill-rule:nonzero;stroke:none"
         id="path2889" /><path
         d="m 850.43,3401.58 425.16,0 0,425.113 -425.16,0 0,-425.113 z"
         style="fill:#231f20;fill-opacity:1;fill-rule:nonzero;stroke:none"
         id="path2891" /><path
         d="m 1275.59,425.289 425.109,0 0,425.109 -425.109,0 0,-425.109 z"
         style="fill:#231f20;fill-opacity:1;fill-rule:nonzero;stroke:none"
         id="path2893" /><path
         d="m 1700.78,850.52 425.16,0 0,425.121 -425.16,0 0,-425.121 z"
         style="fill:#231f20;fill-opacity:1;fill-rule:nonzero;stroke:none"
         id="path2895" /><path
         d="m 1275.51,1275.64 425.109,0 0,425.148 -425.109,0 0,-425.148 z"
         style="fill:#231f20;fill-opacity:1;fill-rule:nonzero;stroke:none"
         id="path2897" /><path
         d="m 1700.78,1700.79 425.16,0 0,425.16 -425.16,0 0,-425.16 z"
         style="fill:#231f20;fill-opacity:1;fill-rule:nonzero;stroke:none"
         id="path2899" /><path
         d="m 2125.86,425.398 425.121,0 0,425.16 -425.121,0 0,-425.16 z"
         style="fill:#231f20;fill-opacity:1;fill-rule:nonzero;stroke:none"
         id="path2901" /><path
         d="m 2551.05,850.641 425.16,0 0,425.148 -425.16,0 0,-425.148 z"
         style="fill:#231f20;fill-opacity:1;fill-rule:nonzero;stroke:none"
         id="path2903" /><path
         d="m 2126.02,1275.52 425.152,0 0,425.121 -425.152,0 0,-425.121 z"
         style="fill:#231f20;fill-opacity:1;fill-rule:nonzero;stroke:none"
         id="path2905" /><path
         d="m 2551.05,1700.91 425.16,0 0,425.16 -425.16,0 0,-425.16 z"
         style="fill:#231f20;fill-opacity:1;fill-rule:nonzero;stroke:none"
         id="path2907" /><path
         d="m 1275.74,2125.99 425.16,0 0,425.121 -425.16,0 0,-425.121 z"
         style="fill:#231f20;fill-opacity:1;fill-rule:nonzero;stroke:none"
         id="path2909" /><path
         d="m 1700.98,2551.22 425.148,0 0,425.121 -425.148,0 0,-425.121 z"
         style="fill:#231f20;fill-opacity:1;fill-rule:nonzero;stroke:none"
         id="path2911" /><path
         d="m 1275.66,2976.34 425.16,0 0,425.16 -425.16,0 0,-425.16 z"
         style="fill:#231f20;fill-opacity:1;fill-rule:nonzero;stroke:none"
         id="path2913" /><path
         d="m 1700.98,3401.5 425.148,0 0,425.148 -425.148,0 0,-425.148 z"
         style="fill:#231f20;fill-opacity:1;fill-rule:nonzero;stroke:none"
         id="path2915" /><path
         d="m 2126.02,2126.11 425.152,0 0,425.152 -425.152,0 0,-425.152 z"
         style="fill:#231f20;fill-opacity:1;fill-rule:nonzero;stroke:none"
         id="path2917" /><path
         d="m 2551.25,2551.34 425.121,0 0,425.16 -425.121,0 0,-425.16 z"
         style="fill:#231f20;fill-opacity:1;fill-rule:nonzero;stroke:none"
         id="path2919" /><path
         d="m 2126.21,2976.22 425.121,0 0,425.121 -425.121,0 0,-425.121 z"
         style="fill:#231f20;fill-opacity:1;fill-rule:nonzero;stroke:none"
         id="path2921" /><path
         d="m 2551.25,3401.61 425.121,0 0,425.16 -425.121,0 0,-425.16 z"
         style="fill:#231f20;fill-opacity:1;fill-rule:nonzero;stroke:none"
         id="path2923" /><path
         d="m 0.0390625,0.0117188 425.1599975,0 0,425.1170012 -425.1599975,0 0,-425.1170012 z"
         style="fill:#231f20;fill-opacity:1;fill-rule:nonzero;stroke:none"
         id="path2925" /><path
         d="m 850.309,0.128906 425.16,0 0,425.160004 -425.16,0 0,-425.160004 z"
         style="fill:#231f20;fill-opacity:1;fill-rule:nonzero;stroke:none"
         id="path2927" /><path
         d="m 1700.86,0.0507812 425.121,0 0,425.1599988 -425.121,0 0,-425.1599988 z"
         style="fill:#231f20;fill-opacity:1;fill-rule:nonzero;stroke:none"
         id="path2929" /><path
         d="m 2551.13,0.210938 425.121,0 0,425.117002 -425.121,0 0,-425.117002 z"
         style="fill:#231f20;fill-opacity:1;fill-rule:nonzero;stroke:none"
         id="path2931" /></g></g></svg>